<mxfile host="app.diagrams.net" modified="2021-03-18T05:53:17.623Z" agent="5.0 (Windows NT 10.0; Win64; x64) AppleWebKit/537.36 (KHTML, like Gecko) Chrome/88.0.4324.96 Safari/537.36 Edg/88.0.705.50" etag="ggBrzoKTUUyAitVeZ5ad" version="14.4.9" type="github">
  <diagram id="Cw7zZR_dsoOVqrvFwJqO" name="Page-1">
    <mxGraphModel dx="1038" dy="556" grid="1" gridSize="10" guides="1" tooltips="1" connect="1" arrows="1" fold="1" page="1" pageScale="1" pageWidth="850" pageHeight="1100" math="0" shadow="0">
      <root>
        <mxCell id="0" />
        <mxCell id="1" parent="0" />
        <mxCell id="JJ08vsAeAaxQlQtPlVRf-2" value="&lt;font style=&quot;font-size: 23px&quot;&gt;&lt;b&gt;Major Topic&lt;/b&gt;&lt;/font&gt;" style="rounded=0;whiteSpace=wrap;html=1;" vertex="1" parent="1">
          <mxGeometry x="50" y="60" width="740" height="60" as="geometry" />
        </mxCell>
        <mxCell id="JJ08vsAeAaxQlQtPlVRf-3" value="&lt;font size=&quot;1&quot;&gt;&lt;b style=&quot;font-size: 25px&quot;&gt;Admin&lt;/b&gt;&lt;/font&gt;" style="text;html=1;align=center;verticalAlign=middle;resizable=0;points=[];autosize=1;" vertex="1" parent="1">
          <mxGeometry x="375" y="20" width="90" height="20" as="geometry" />
        </mxCell>
        <mxCell id="JJ08vsAeAaxQlQtPlVRf-6" value="Start; 1st March" style="text;html=1;align=center;verticalAlign=middle;resizable=0;points=[];autosize=1;" vertex="1" parent="1">
          <mxGeometry x="70" y="80" width="100" height="20" as="geometry" />
        </mxCell>
        <mxCell id="JJ08vsAeAaxQlQtPlVRf-7" value="End: 31st May" style="text;html=1;align=center;verticalAlign=middle;resizable=0;points=[];autosize=1;" vertex="1" parent="1">
          <mxGeometry x="690" y="80" width="90" height="20" as="geometry" />
        </mxCell>
        <mxCell id="JJ08vsAeAaxQlQtPlVRf-8" value="&lt;b&gt;&lt;font style=&quot;font-size: 16px&quot;&gt;ST1&lt;/font&gt;&lt;/b&gt;" style="whiteSpace=wrap;html=1;" vertex="1" parent="1">
          <mxGeometry x="50" y="120" width="260" height="60" as="geometry" />
        </mxCell>
        <mxCell id="JJ08vsAeAaxQlQtPlVRf-9" value="&lt;b&gt;&lt;font style=&quot;font-size: 14px&quot;&gt;ST2&lt;/font&gt;&lt;/b&gt;" style="whiteSpace=wrap;html=1;" vertex="1" parent="1">
          <mxGeometry x="310" y="120" width="250" height="60" as="geometry" />
        </mxCell>
        <mxCell id="JJ08vsAeAaxQlQtPlVRf-10" value="&lt;b&gt;&lt;font style=&quot;font-size: 14px&quot;&gt;ST3&lt;/font&gt;&lt;/b&gt;" style="whiteSpace=wrap;html=1;" vertex="1" parent="1">
          <mxGeometry x="560" y="120" width="230" height="60" as="geometry" />
        </mxCell>
        <mxCell id="JJ08vsAeAaxQlQtPlVRf-12" value="Start; 1st March" style="text;html=1;align=center;verticalAlign=middle;resizable=0;points=[];autosize=1;" vertex="1" parent="1">
          <mxGeometry x="50" y="140" width="100" height="20" as="geometry" />
        </mxCell>
        <mxCell id="JJ08vsAeAaxQlQtPlVRf-13" value="Start; 1st Apr" style="text;html=1;align=center;verticalAlign=middle;resizable=0;points=[];autosize=1;" vertex="1" parent="1">
          <mxGeometry x="315" y="140" width="90" height="20" as="geometry" />
        </mxCell>
        <mxCell id="JJ08vsAeAaxQlQtPlVRf-14" value="Start; 1st May" style="text;html=1;align=center;verticalAlign=middle;resizable=0;points=[];autosize=1;" vertex="1" parent="1">
          <mxGeometry x="565" y="140" width="90" height="20" as="geometry" />
        </mxCell>
        <mxCell id="JJ08vsAeAaxQlQtPlVRf-15" value="End: 31st Mar" style="text;html=1;align=center;verticalAlign=middle;resizable=0;points=[];autosize=1;" vertex="1" parent="1">
          <mxGeometry x="220" y="140" width="90" height="20" as="geometry" />
        </mxCell>
        <mxCell id="JJ08vsAeAaxQlQtPlVRf-16" value="End: 31st April" style="text;html=1;align=center;verticalAlign=middle;resizable=0;points=[];autosize=1;" vertex="1" parent="1">
          <mxGeometry x="470" y="140" width="90" height="20" as="geometry" />
        </mxCell>
        <mxCell id="JJ08vsAeAaxQlQtPlVRf-17" value="End: 31st May" style="text;html=1;align=center;verticalAlign=middle;resizable=0;points=[];autosize=1;" vertex="1" parent="1">
          <mxGeometry x="700" y="140" width="90" height="20" as="geometry" />
        </mxCell>
        <mxCell id="JJ08vsAeAaxQlQtPlVRf-18" value="&lt;font size=&quot;1&quot;&gt;&lt;b style=&quot;font-size: 25px&quot;&gt;User&lt;/b&gt;&lt;/font&gt;" style="text;html=1;align=center;verticalAlign=middle;resizable=0;points=[];autosize=1;" vertex="1" parent="1">
          <mxGeometry x="390" y="290" width="70" height="20" as="geometry" />
        </mxCell>
        <mxCell id="JJ08vsAeAaxQlQtPlVRf-19" value="&lt;font style=&quot;font-size: 23px&quot;&gt;&lt;b&gt;Major Topic&lt;/b&gt;&lt;/font&gt;" style="rounded=0;whiteSpace=wrap;html=1;" vertex="1" parent="1">
          <mxGeometry x="40" y="340" width="740" height="60" as="geometry" />
        </mxCell>
        <mxCell id="JJ08vsAeAaxQlQtPlVRf-20" value="Start; 1st March" style="text;html=1;align=center;verticalAlign=middle;resizable=0;points=[];autosize=1;" vertex="1" parent="1">
          <mxGeometry x="60" y="360" width="100" height="20" as="geometry" />
        </mxCell>
        <mxCell id="JJ08vsAeAaxQlQtPlVRf-21" value="End: 31st May" style="text;html=1;align=center;verticalAlign=middle;resizable=0;points=[];autosize=1;" vertex="1" parent="1">
          <mxGeometry x="680" y="360" width="90" height="20" as="geometry" />
        </mxCell>
        <mxCell id="JJ08vsAeAaxQlQtPlVRf-22" value="&lt;b&gt;&lt;font style=&quot;font-size: 16px&quot;&gt;ST1&lt;/font&gt;&lt;/b&gt;" style="whiteSpace=wrap;html=1;" vertex="1" parent="1">
          <mxGeometry x="40" y="400" width="260" height="60" as="geometry" />
        </mxCell>
        <mxCell id="JJ08vsAeAaxQlQtPlVRf-23" value="&lt;b&gt;&lt;font style=&quot;font-size: 14px&quot;&gt;ST2&lt;/font&gt;&lt;/b&gt;" style="whiteSpace=wrap;html=1;" vertex="1" parent="1">
          <mxGeometry x="300" y="400" width="250" height="60" as="geometry" />
        </mxCell>
        <mxCell id="JJ08vsAeAaxQlQtPlVRf-24" value="&lt;b&gt;&lt;font style=&quot;font-size: 14px&quot;&gt;ST3&lt;/font&gt;&lt;/b&gt;" style="whiteSpace=wrap;html=1;" vertex="1" parent="1">
          <mxGeometry x="550" y="400" width="230" height="60" as="geometry" />
        </mxCell>
        <mxCell id="JJ08vsAeAaxQlQtPlVRf-25" value="Start; 1st March" style="text;html=1;align=center;verticalAlign=middle;resizable=0;points=[];autosize=1;" vertex="1" parent="1">
          <mxGeometry x="40" y="420" width="100" height="20" as="geometry" />
        </mxCell>
        <mxCell id="JJ08vsAeAaxQlQtPlVRf-26" value="Start; 1st Apr" style="text;html=1;align=center;verticalAlign=middle;resizable=0;points=[];autosize=1;" vertex="1" parent="1">
          <mxGeometry x="305" y="420" width="90" height="20" as="geometry" />
        </mxCell>
        <mxCell id="JJ08vsAeAaxQlQtPlVRf-27" value="Start; 1st May" style="text;html=1;align=center;verticalAlign=middle;resizable=0;points=[];autosize=1;" vertex="1" parent="1">
          <mxGeometry x="555" y="420" width="90" height="20" as="geometry" />
        </mxCell>
        <mxCell id="JJ08vsAeAaxQlQtPlVRf-28" value="End: 31st Mar" style="text;html=1;align=center;verticalAlign=middle;resizable=0;points=[];autosize=1;" vertex="1" parent="1">
          <mxGeometry x="210" y="420" width="90" height="20" as="geometry" />
        </mxCell>
        <mxCell id="JJ08vsAeAaxQlQtPlVRf-29" value="End: 31st April" style="text;html=1;align=center;verticalAlign=middle;resizable=0;points=[];autosize=1;" vertex="1" parent="1">
          <mxGeometry x="460" y="420" width="90" height="20" as="geometry" />
        </mxCell>
        <mxCell id="JJ08vsAeAaxQlQtPlVRf-30" value="End: 31st May" style="text;html=1;align=center;verticalAlign=middle;resizable=0;points=[];autosize=1;" vertex="1" parent="1">
          <mxGeometry x="690" y="420" width="90" height="20" as="geometry" />
        </mxCell>
        <mxCell id="JJ08vsAeAaxQlQtPlVRf-32" value="" style="verticalLabelPosition=bottom;verticalAlign=top;html=1;shape=mxgraph.basic.tick;fillColor=#d5e8d4;strokeColor=#82b366;" vertex="1" parent="1">
          <mxGeometry x="150" y="470" width="40" height="40" as="geometry" />
        </mxCell>
        <mxCell id="JJ08vsAeAaxQlQtPlVRf-33" value="" style="verticalLabelPosition=bottom;verticalAlign=top;html=1;shape=mxgraph.basic.x;fillColor=#f8cecc;strokeColor=#b85450;" vertex="1" parent="1">
          <mxGeometry x="650" y="470" width="40" height="40" as="geometry" />
        </mxCell>
        <mxCell id="JJ08vsAeAaxQlQtPlVRf-34" value="" style="verticalLabelPosition=bottom;verticalAlign=top;html=1;shape=mxgraph.basic.tick;fillColor=#d5e8d4;strokeColor=#82b366;" vertex="1" parent="1">
          <mxGeometry x="405" y="470" width="40" height="40" as="geometry" />
        </mxCell>
      </root>
    </mxGraphModel>
  </diagram>
</mxfile>
